<?xml version="1.0" encoding="UTF-8" standalone="no"?>
<!-- Created with Inkscape (http://www.inkscape.org/) -->

<svg
   width="179.38513mm"
   height="37.094315mm"
   viewBox="0 0 179.38513 37.094315"
   version="1.1"
   id="svg1"
   xml:space="preserve"
   xmlns="http://www.w3.org/2000/svg"
   xmlns:svg="http://www.w3.org/2000/svg"><defs
     id="defs1" /><g
     id="layer1"
     transform="translate(-17.036111,-194.53516)"><path
       style="fill:#003345;fill-opacity:1"
       d="m 104.34661,231.37886 c -3.3629,-0.5431 -6.980983,-3.26431 -8.436706,-6.34536 -1.117931,-2.3661 -1.440441,-4.13866 -1.292031,-7.10117 0.105299,-2.10196 0.26588,-2.83331 0.951954,-4.33558 1.599012,-3.5013 3.691367,-5.55852 6.961733,-6.84483 1.91183,-0.75197 7.102,-0.82485 9.05647,-0.12718 2.04595,0.73032 2.27642,0.87519 4.37842,2.75204 0.80573,0.71942 1.59007,1.80184 2.2048,3.0427 1.54695,3.12257 1.9915,7.74577 0.82671,8.59749 -0.35607,0.26036 -2.46907,0.34001 -9.02018,0.34001 h -8.55518 l 0.43487,0.84094 c 1.80128,3.48329 6.93056,4.45874 10.63834,2.02311 0.62575,-0.41106 1.28379,-0.74738 1.4623,-0.74738 0.17851,0 1.1465,0.82828 2.15109,1.84063 1.6862,1.69922 1.80382,1.89047 1.53096,2.48934 -0.29809,0.65422 -1.81421,1.81846 -3.48226,2.67405 -1.95202,1.00125 -6.56698,1.42514 -9.81129,0.90119 z m 8.20208,-15.45898 c 0,-0.36363 -0.90848,-1.84543 -1.48469,-2.42164 -0.95334,-0.95334 -2.2754,-1.40168 -4.1333,-1.40168 -2.33182,0 -3.78985,0.79544 -4.7837,2.6098 l -0.7444,1.35895 h 5.57304 c 3.06518,0 5.57305,-0.0654 5.57305,-0.14543 z m 20.37291,15.59893 c -3.7135,-0.67877 -6.32788,-2.22516 -8.23368,-4.87016 -1.70229,-2.36256 -2.40341,-4.66904 -2.40258,-7.90378 5.9e-4,-2.26789 0.10058,-2.82691 0.84063,-4.69967 1.61222,-4.07989 4.94044,-6.89667 9.19699,-7.78373 1.79297,-0.37365 5.4477,-0.18209 7.24458,0.3797 2.63256,0.82308 5.26653,2.62179 5.25572,3.58907 -0.005,0.49058 -3.46866,3.98299 -3.94966,3.98299 -0.18424,0 -0.67821,-0.2888 -1.09771,-0.64179 -0.84511,-0.71111 -3.16416,-1.47488 -4.47825,-1.47488 -3.38938,0 -6.33675,3.13813 -6.33675,6.74688 0,1.24966 0.46104,2.8574 1.14156,3.98084 1.61854,2.67198 6.41605,3.39323 9.38086,1.41031 0.62575,-0.41852 1.34357,-0.76094 1.59514,-0.76094 0.65486,0 3.7494,3.20055 3.7494,3.87785 0,0.90845 -2.62923,2.85875 -4.89479,3.63084 -1.29526,0.44142 -5.69129,0.77777 -7.01146,0.53647 z m 22.1139,-0.13603 c -1.78919,-0.26092 -4.32446,-1.37094 -6.07699,-2.66068 -1.72014,-1.26591 -1.64944,-1.84202 0.47665,-3.8836 0.93329,-0.89619 1.86793,-1.62944 2.07697,-1.62944 0.20904,0 0.87377,0.35763 1.47717,0.79473 1.53498,1.11194 3.05254,1.57819 5.15126,1.58267 2.40052,0.005 3.34306,-0.4909 3.35199,-1.76407 0.006,-0.87399 -1.25539,-1.60383 -4.01031,-2.32012 -3.39011,-0.88144 -3.91519,-1.05309 -5.12129,-1.67416 -3.06682,-1.57922 -4.30374,-4.97468 -3.12501,-8.57844 0.59977,-1.83369 2.70442,-3.93598 4.54218,-4.53708 4.81965,-1.57643 10.91174,-0.44367 13.37819,2.48754 0.83899,0.99708 0.77771,1.13607 -1.48141,3.36016 l -1.68041,1.65435 -1.44738,-0.93356 c -1.77678,-1.14601 -3.16504,-1.54205 -4.84097,-1.38102 -1.53961,0.14794 -2.44641,0.88997 -2.16627,1.77264 0.22151,0.69789 1.68718,1.3673 4.39174,2.00583 4.60298,1.08671 7.20559,2.95458 8.01993,5.7558 0.52244,1.79714 0.53476,2.91086 0.05,4.52154 -1.30778,4.34542 -6.23647,6.40831 -12.96606,5.42691 z m 24.94451,0.0233 c -3.10731,-0.52484 -6.17912,-2.87402 -7.77769,-5.94805 -1.07428,-2.06582 -1.31301,-3.22036 -1.31301,-6.35 0,-2.83924 0.0772,-3.37207 0.72986,-5.0386 0.40143,-1.02498 0.99674,-2.20595 1.32292,-2.62438 2.9487,-3.78265 5.29835,-5.05837 9.85549,-5.35097 4.42111,-0.28386 8.14369,1.12295 10.54206,3.98397 2.44009,2.91078 3.08108,5.89301 3.0816,14.33723 2.7e-4,4.28664 -0.0884,5.95786 -0.33409,6.2938 -0.28687,0.39232 -0.72914,0.44656 -3.10885,0.38129 l -2.7744,-0.0761 -0.0814,-0.98076 -0.0814,-0.98076 -1.26279,0.90723 c -2.04525,1.46936 -5.39791,2.02041 -8.79822,1.44609 z m 5.67979,-6.23783 c 1.55644,-0.53033 2.82929,-1.97138 3.43304,-3.88669 0.59021,-1.87236 0.56738,-3.17721 -0.0896,-5.1227 -1.85597,-5.49583 -9.17786,-5.36173 -11.1379,0.204 -0.61584,1.74874 -0.62417,3.07538 -0.0312,4.97088 1.06721,3.41152 4.34849,5.01932 7.82569,3.83451 z m -153.936185,5.69583 c -5.525206,-0.9235 -10.987093,-5.05457 -13.125113,-9.92711 -1.308081,-2.98112 -1.560263,-4.3042 -1.562377,-8.19706 -0.0021,-3.95008 0.245124,-5.27822 1.49409,-8.02509 1.728035,-3.8005 4.939613,-6.97801 8.760901,-8.66796 3.221634,-1.42476 3.681654,-1.5117 7.999238,-1.5117 4.274988,0 4.768197,0.091 7.805209,1.43986 6.541411,2.90534 10.715625,9.48566 10.715625,16.89232 0,3.97573 -1.757138,8.77098 -4.201597,11.46621 l -0.659906,0.72761 h 2.907002 c 1.908223,0 3.016087,0.10908 3.224501,0.3175 0.331959,0.33196 0.456243,4.56933 0.156901,5.3494 -0.143156,0.37306 -1.35731,0.41513 -11.178646,0.38739 -6.059926,-0.0171 -11.611049,-0.13023 -12.335828,-0.25137 z m 6.912307,-6.8804 c 3.461992,-1.04655 5.66608,-3.17345 7.009482,-6.76402 0.457653,-1.22318 0.521386,-1.92564 0.447151,-4.92844 -0.08019,-3.24351 -0.143809,-3.61909 -0.862132,-5.08944 -0.426556,-0.87312 -0.962338,-1.78338 -1.190625,-2.0228 -0.228288,-0.23941 -0.749901,-0.80212 -1.159141,-1.25045 -0.40924,-0.44834 -1.640285,-1.25809 -2.735656,-1.79946 -1.747179,-0.8635 -2.283534,-0.99825 -4.370597,-1.09803 -2.122072,-0.10146 -2.583874,-0.0348 -4.275803,0.61766 -3.076113,1.18616 -4.602789,2.5355 -5.983544,5.2885 -1.943727,3.87548 -1.620464,9.44045 0.754977,12.99694 1.275762,1.91005 3.014381,3.17704 5.448445,3.97046 2.346658,0.76493 4.564772,0.79029 6.917443,0.0791 z m 20.122101,6.99445 c -0.101384,-0.10138 -0.184335,-5.57956 -0.184335,-12.17374 v -11.9894 l 0.595313,-0.14854 c 0.327422,-0.0817 1.785937,-0.11373 3.241146,-0.0712 l 2.645833,0.0773 v 12.17083 12.17083 l -3.056811,0.0741 c -1.681246,0.0408 -3.139761,-0.009 -3.241146,-0.11025 z m 10.244815,-0.19007 c -0.07567,-0.19719 -0.101696,-4.27508 -0.05784,-9.06198 l 0.07973,-8.70346 0.73302,-1.49265 c 1.825687,-3.71765 6.02953,-5.75883 11.242463,-5.45878 4.140954,0.23834 7.293473,1.75333 8.991982,4.32124 1.540256,2.32864 1.654411,3.16195 1.654411,12.07684 0,5.90235 -0.08448,8.12679 -0.3175,8.3598 -0.207355,0.20736 -1.298987,0.3175 -3.146693,0.3175 -2.335778,0 -2.857201,-0.073 -2.989792,-0.41851 -0.08833,-0.23018 -0.160599,-3.68695 -0.160599,-7.68171 0,-7.18031 -0.0074,-7.27778 -0.647213,-8.54042 -1.05761,-2.08709 -3.698758,-2.94346 -6.168747,-2.00016 -1.435696,0.5483 -1.682831,0.75506 -2.277855,1.90571 -0.369292,0.71413 -0.431185,1.92948 -0.431185,8.46696 0,5.5841 -0.08523,7.71836 -0.3175,7.95063 -0.474077,0.47408 -6.003091,0.43742 -6.186684,-0.041 z m -9.087425,-27.6216 c -1.300346,-0.66306 -1.880066,-1.5972 -2.020827,-3.2563 -0.155875,-1.83724 0.429001,-3.05419 1.869727,-3.8903 2.200973,-1.27733 5.450023,-0.16094 6.034471,2.07347 0.358995,1.37248 0.03367,3.39354 -0.669047,4.15645 -1.264502,1.37281 -3.536497,1.77223 -5.214324,0.91668 z"
       id="path1" /></g></svg>
