<?xml version="1.0" encoding="UTF-8" standalone="no"?>
<!-- Created with Inkscape (http://www.inkscape.org/) -->

<svg
   width="210mm"
   height="297mm"
   viewBox="0 0 210 297"
   version="1.1"
   id="svg1"
   inkscape:version="1.4.3 (0d15f75, 2025-12-25)"
   sodipodi:docname="clinetra-logo.svg"
   xmlns:inkscape="http://www.inkscape.org/namespaces/inkscape"
   xmlns:sodipodi="http://sodipodi.sourceforge.net/DTD/sodipodi-0.dtd"
   xmlns="http://www.w3.org/2000/svg"
   xmlns:svg="http://www.w3.org/2000/svg">
  <sodipodi:namedview
     id="namedview1"
     pagecolor="#ffffff"
     bordercolor="#000000"
     borderopacity="0.25"
     inkscape:showpageshadow="2"
     inkscape:pageopacity="0.0"
     inkscape:pagecheckerboard="0"
     inkscape:deskcolor="#d1d1d1"
     inkscape:document-units="mm"
     inkscape:zoom="0.72604517"
     inkscape:cx="397.3582"
     inkscape:cy="561.25984"
     inkscape:window-width="1920"
     inkscape:window-height="1017"
     inkscape:window-x="-8"
     inkscape:window-y="-8"
     inkscape:window-maximized="1"
     inkscape:current-layer="layer1" />
  <defs
     id="defs1" />
  <g
     inkscape:label="Layer 1"
     inkscape:groupmode="layer"
     id="layer1">
    <g
       id="g3"
       transform="matrix(0.24571358,0,0,0.24571358,-24.736772,48.248809)">
      <path
         id="path1-4"
         d="m 0,0 c -6.972,-8.113 -15.753,-12.228 -26.096,-12.228 -9.419,0 -17.314,3.047 -23.473,9.055 -6.146,5.995 -9.264,13.589 -9.264,22.573 0,5.953 1.393,11.38 4.141,16.129 2.747,4.743 6.679,8.577 11.684,11.397 5.016,2.827 10.546,4.259 16.436,4.259 5.403,0 10.422,-1.093 14.918,-3.249 4.485,-2.152 8.388,-5.364 11.6,-9.543 l 0.976,-1.273 8.644,6.629 -0.914,1.264 c -3.872,5.369 -8.908,9.601 -14.967,12.576 -6.043,2.966 -12.894,4.471 -20.363,4.471 -12.389,0 -22.854,-4.074 -31.104,-12.107 -8.265,-8.044 -12.455,-18.093 -12.455,-29.866 0,-11.161 3.456,-20.828 10.273,-28.74 8.137,-9.377 19.371,-14.133 33.392,-14.133 7.351,0 14.112,1.41 20.095,4.192 5.998,2.79 11.075,6.794 15.089,11.903 l 1.012,1.286 -8.639,6.552 z"
         style="fill:#204497;fill-opacity:1;fill-rule:nonzero;stroke:none"
         transform="matrix(1.3333333,0,0,-1.3333333,490.32587,413.39293)" />
      <path
         id="path2"
         d="m 386.748,281.125 h 10.612 v 82.89 h -10.612 z"
         style="fill:#204497;fill-opacity:1;fill-rule:nonzero;stroke:none"
         transform="matrix(1.3333333,0,0,-1.3333333,0,816)" />
      <path
         id="path3"
         d="m 0,0 c -2.083,0 -3.9,-0.762 -5.402,-2.271 -1.496,-1.505 -2.255,-3.343 -2.255,-5.465 0,-2.088 0.759,-3.909 2.257,-5.414 1.498,-1.505 3.315,-2.269 5.4,-2.269 2.118,0 3.953,0.764 5.451,2.269 1.498,1.503 2.257,3.326 2.257,5.414 0,2.122 -0.759,3.962 -2.257,5.467 C 3.953,-0.764 2.118,0 0,0"
         style="fill:#204497;fill-opacity:1;fill-rule:nonzero;stroke:none"
         transform="matrix(1.3333333,0,0,-1.3333333,551.5864,328.67413)" />
      <path
         id="path4"
         d="m 408.411,281.125 h 10.611 v 60.699 h -10.611 z"
         style="fill:#204497;fill-opacity:1;fill-rule:nonzero;stroke:none"
         transform="matrix(1.3333333,0,0,-1.3333333,0,816)" />
      <path
         id="path5"
         d="m 0,0 c -3.581,2.348 -7.725,3.539 -12.321,3.539 -4.48,0 -8.684,-1.054 -12.497,-3.128 -2.641,-1.437 -5.138,-3.398 -7.455,-5.853 v 7.5 h -10.609 v -60.699 h 10.609 v 22.687 c 0,7.415 0.341,12.546 1.008,15.24 1.036,4.017 3.214,7.434 6.475,10.158 3.272,2.736 6.867,4.065 10.992,4.065 3.523,0 6.385,-0.853 8.515,-2.534 2.125,-1.677 3.592,-4.26 4.37,-7.711 0.514,-2.085 0.774,-6.417 0.774,-12.874 v -29.031 h 10.613 v 31.196 c 0,8.115 -0.821,13.974 -2.508,17.909 C 6.262,-5.56 3.582,-2.353 0,0"
         style="fill:#204497;fill-opacity:1;fill-rule:nonzero;stroke:none"
         transform="matrix(1.3333333,0,0,-1.3333333,632.08693,362.97973)" />
      <path
         id="path6"
         d="m 0,0 c -1.817,3.776 -2.646,7.261 -2.466,10.379 0.28,5.069 2.233,9.35 5.969,13.087 2.241,2.241 4.888,3.929 7.868,5.014 2.965,1.083 5.857,1.477 8.599,1.171 2.242,-0.249 4.683,-1.057 7.276,-2.405 z M 41.283,29.99 C 35.44,35.726 28.938,39.044 21.962,39.849 12.1,41.023 3.415,37.934 -3.85,30.669 -10.917,23.602 -13.903,15.145 -12.731,5.528 c 0.911,-7.531 4.106,-14.084 9.499,-19.477 5.734,-5.735 12.922,-8.963 21.363,-9.596 8.535,-0.642 16.387,2.555 23.332,9.5 3.117,3.117 5.475,6.444 7.009,9.887 1.535,3.448 2.393,7.135 2.55,10.96 0.162,3.818 -0.493,8.006 -1.938,12.452 l -0.492,1.507 -9.688,-3.012 0.367,-1.473 C 40.285,12.21 40.713,8.941 40.544,6.557 40.378,4.2 39.712,1.746 38.56,-0.743 37.41,-3.234 35.848,-5.474 33.922,-7.4 c -4.004,-4.003 -8.641,-5.906 -14.176,-5.811 -5.002,0.084 -9.649,1.944 -13.835,5.534 l 36.529,36.53 z"
         style="fill:#204497;fill-opacity:1;fill-rule:nonzero;stroke:none"
         transform="matrix(1.3333333,0,0,-1.3333333,675.84227,411.7432)" />
      <path
         id="path7"
         d="m 0,0 h -10.611 v -21.346 h -10.092 v -9.606 h 10.092 V -82.045 H 0 v 51.093 h 11.729 v 9.606 H 0 Z"
         style="fill:#204497;fill-opacity:1;fill-rule:nonzero;stroke:none"
         transform="matrix(1.3333333,0,0,-1.3333333,779.4076,331.774)" />
      <path
         id="path8"
         d="m 0,0 c -2.559,1.433 -5.026,2.16 -7.339,2.16 -3.017,0 -5.945,-0.915 -8.7,-2.719 -1.594,-1.044 -3.147,-2.411 -4.645,-4.082 v 5.322 h -10.769 v -60.699 h 10.769 v 21.051 c 0,9.775 0.443,16.313 1.315,19.432 1.107,3.94 2.703,6.854 4.749,8.661 2.002,1.774 3.988,2.634 6.068,2.634 0.828,0 1.93,-0.293 3.271,-0.873 l 1.275,-0.549 5.469,8.842 z"
         style="fill:#204497;fill-opacity:1;fill-rule:nonzero;stroke:none"
         transform="matrix(1.3333333,0,0,-1.3333333,849.52973,361.14253)" />
      <path
         id="path9"
         d="m 0,0 3.526,2.116 c 2.482,-4.569 5.348,-6.852 8.6,-6.852 1.393,0 2.698,0.323 3.92,0.973 1.222,0.648 2.153,1.517 2.792,2.607 0.639,1.089 0.959,2.247 0.959,3.469 0,1.391 -0.469,2.753 -1.408,4.09 -1.298,1.842 -3.667,4.06 -7.109,6.654 -3.458,2.613 -5.611,4.503 -6.458,5.669 -1.466,1.954 -2.198,4.069 -2.198,6.345 0,1.805 0.432,3.449 1.296,4.934 0.865,1.486 2.083,2.656 3.652,3.513 1.569,0.855 3.277,1.282 5.12,1.282 1.954,0 3.782,-0.485 5.484,-1.453 1.702,-0.967 3.502,-2.75 5.4,-5.344 l -3.384,-2.565 c -1.561,2.067 -2.89,3.429 -3.99,4.088 -1.101,0.659 -2.297,0.987 -3.596,0.987 -1.672,0 -3.04,-0.508 -4.103,-1.523 C 7.441,27.975 6.91,26.725 6.91,25.239 c 0,-0.902 0.188,-1.775 0.562,-2.622 0.378,-0.846 1.063,-1.766 2.06,-2.764 0.546,-0.527 2.332,-1.907 5.358,-4.144 3.592,-2.652 6.054,-5.012 7.39,-7.079 1.333,-2.069 2,-4.145 2,-6.233 0,-3.008 -1.141,-5.621 -3.426,-7.839 -2.283,-2.218 -5.061,-3.328 -8.333,-3.328 -2.518,0 -4.803,0.672 -6.852,2.016 C 3.619,-5.409 1.73,-3.158 0,0"
         style="fill:#204497;fill-opacity:1;fill-rule:nonzero;stroke:none"
         transform="matrix(1.3333333,0,0,-1.3333333,396.67653,505.59827)" />
      <path
         id="path10"
         d="m 0,0 c -3.282,0 -6.103,-1.214 -8.461,-3.637 -2.36,-2.427 -3.539,-5.36 -3.539,-8.8 0,-2.218 0.538,-4.285 1.614,-6.203 1.075,-1.917 2.529,-3.4 4.359,-4.443 1.83,-1.043 3.837,-1.564 6.027,-1.564 2.188,0 4.197,0.521 6.027,1.564 1.83,1.043 3.284,2.526 4.359,4.443 1.075,1.918 1.614,3.985 1.614,6.203 0,3.44 -1.184,6.373 -3.553,8.8 C 6.08,-1.214 3.265,0 0,0 m 0.014,3.863 c 4.728,0 8.644,-1.71 11.752,-5.133 2.826,-3.12 4.238,-6.815 4.238,-11.083 0,-4.286 -1.493,-8.032 -4.477,-11.237 -2.987,-3.205 -6.824,-4.809 -11.513,-4.809 -4.708,0 -8.556,1.604 -11.541,4.809 -2.984,3.205 -4.477,6.951 -4.477,11.237 0,4.25 1.412,7.935 4.238,11.055 3.106,3.44 7.035,5.161 11.78,5.161"
         style="fill:#204497;fill-opacity:1;fill-rule:nonzero;stroke:none"
         transform="matrix(1.3333333,0,0,-1.3333333,459.226,479.08893)" />
      <path
         id="path11"
         d="m 367.135,267.601 h 3.946 v -42.527 h -3.946 z"
         style="fill:#204497;fill-opacity:1;fill-rule:nonzero;stroke:none"
         transform="matrix(1.3333333,0,0,-1.3333333,0,816)" />
      <path
         id="path12"
         d="m 0,0 h 3.948 v -14.325 c 0,-3.498 0.189,-5.904 0.565,-7.221 0.566,-1.879 1.644,-3.365 3.233,-4.455 1.591,-1.091 3.488,-1.635 5.692,-1.635 2.202,0 4.071,0.53 5.606,1.592 1.534,1.063 2.593,2.459 3.178,4.189 0.395,1.185 0.594,3.695 0.594,7.53 V 0 h 4.03 v -15.059 c 0,-4.231 -0.492,-7.416 -1.479,-9.56 -0.988,-2.143 -2.474,-3.822 -4.455,-5.033 -1.984,-1.214 -4.471,-1.82 -7.46,-1.82 -2.989,0 -5.484,0.606 -7.486,1.82 -2.004,1.211 -3.499,2.904 -4.486,5.075 C 0.493,-22.405 0,-19.138 0,-14.776 Z"
         style="fill:#204497;fill-opacity:1;fill-rule:nonzero;stroke:none"
         transform="matrix(1.3333333,0,0,-1.3333333,505.04213,474.99093)" />
      <path
         id="path13"
         d="m 0,0 h 3.948 v -11.394 h 6.26 v -3.41 H 3.948 V -42.075 H 0 v 27.271 h -5.386 v 3.41 H 0 Z"
         style="fill:#204497;fill-opacity:1;fill-rule:nonzero;stroke:none"
         transform="matrix(1.3333333,0,0,-1.3333333,557.1188,459.7996)" />
      <path
         id="path14"
         d="m 433.379,255.757 h 3.946 v -30.682 h -3.946 z m 1.959,12.634 c 0.898,0 1.665,-0.32 2.303,-0.959 0.635,-0.639 0.955,-1.41 0.955,-2.313 0,-0.883 -0.32,-1.645 -0.955,-2.284 -0.638,-0.64 -1.405,-0.959 -2.303,-0.959 -0.88,0 -1.638,0.319 -2.276,0.959 -0.634,0.639 -0.953,1.401 -0.953,2.284 0,0.903 0.319,1.674 0.953,2.313 0.638,0.639 1.396,0.959 2.276,0.959"
         style="fill:#204497;fill-opacity:1;fill-rule:nonzero;stroke:none"
         transform="matrix(1.3333333,0,0,-1.3333333,0,816)" />
      <path
         id="path15"
         d="m 0,0 c -3.282,0 -6.103,-1.214 -8.461,-3.637 -2.36,-2.427 -3.539,-5.36 -3.539,-8.8 0,-2.218 0.538,-4.285 1.614,-6.203 1.075,-1.917 2.529,-3.4 4.359,-4.443 1.83,-1.043 3.837,-1.564 6.027,-1.564 2.188,0 4.197,0.521 6.027,1.564 1.83,1.043 3.284,2.526 4.359,4.443 1.075,1.918 1.614,3.985 1.614,6.203 0,3.44 -1.184,6.373 -3.553,8.8 C 6.08,-1.214 3.265,0 0,0 m 0.014,3.863 c 4.728,0 8.644,-1.71 11.752,-5.133 2.826,-3.12 4.238,-6.815 4.238,-11.083 0,-4.286 -1.493,-8.032 -4.477,-11.237 -2.987,-3.205 -6.824,-4.809 -11.513,-4.809 -4.708,0 -8.556,1.604 -11.541,4.809 -2.984,3.205 -4.477,6.951 -4.477,11.237 0,4.25 1.412,7.935 4.238,11.055 3.106,3.44 7.035,5.161 11.78,5.161"
         style="fill:#204497;fill-opacity:1;fill-rule:nonzero;stroke:none"
         transform="matrix(1.3333333,0,0,-1.3333333,613.38893,479.08893)" />
      <path
         id="path16"
         d="m 0,0 h 3.948 v -5.499 c 1.579,2.106 3.328,3.68 5.245,4.725 1.918,1.043 4.004,1.564 6.261,1.564 2.294,0 4.329,-0.583 6.106,-1.749 1.776,-1.166 3.087,-2.736 3.934,-4.71 0.846,-1.974 1.268,-5.047 1.268,-9.221 v -15.792 h -3.946 v 14.636 c 0,3.535 -0.148,5.894 -0.441,7.077 -0.458,2.032 -1.335,3.558 -2.632,4.584 -1.296,1.024 -2.991,1.537 -5.077,1.537 -2.387,0 -4.528,-0.789 -6.417,-2.37 C 6.359,-6.796 5.112,-8.751 4.511,-11.083 4.136,-12.606 3.948,-15.387 3.948,-19.43 V -30.682 H 0 Z"
         style="fill:#204497;fill-opacity:1;fill-rule:nonzero;stroke:none"
         transform="matrix(1.3333333,0,0,-1.3333333,644.46587,474.99093)" />
      <path
         id="path17"
         d="m 0,0 -2.538,-2.622 c -2.112,2.048 -4.176,3.073 -6.192,3.073 -1.282,0 -2.381,-0.423 -3.294,-1.269 -0.914,-0.845 -1.372,-1.832 -1.372,-2.959 0,-0.998 0.376,-1.946 1.131,-2.849 0.753,-0.922 2.336,-2.004 4.749,-3.244 2.938,-1.522 4.934,-2.989 5.99,-4.399 1.036,-1.429 1.554,-3.036 1.554,-4.822 0,-2.52 -0.885,-4.654 -2.655,-6.401 -1.77,-1.749 -3.983,-2.624 -6.637,-2.624 -1.77,0 -3.461,0.386 -5.07,1.156 -1.61,0.771 -2.941,1.833 -3.997,3.187 l 2.482,2.82 c 2.018,-2.276 4.157,-3.412 6.417,-3.412 1.582,0 2.931,0.508 4.041,1.523 1.113,1.015 1.668,2.209 1.668,3.582 0,1.128 -0.367,2.132 -1.101,3.017 -0.736,0.864 -2.394,1.955 -4.975,3.27 -2.77,1.43 -4.652,2.84 -5.652,4.231 -0.999,1.391 -1.498,2.98 -1.498,4.766 0,2.33 0.796,4.268 2.387,5.809 1.591,1.542 3.602,2.313 6.031,2.313 C -5.706,4.146 -2.863,2.764 0,0"
         style="fill:#204497;fill-opacity:1;fill-rule:nonzero;stroke:none"
         transform="matrix(1.3333333,0,0,-1.3333333,711.9976,479.4656)" />
      <path
         id="path18"
         d="m 0,0 h -139.505 c 0,-58.882 47.732,-106.614 106.614,-106.614 H 0 c 0,15.958 -12.936,28.894 -28.894,28.894 h -78.543 V 30.954 h 76.483 C -13.86,30.954 0,17.096 0,0"
         style="fill:#204497;fill-opacity:1;fill-rule:nonzero;stroke:none"
         transform="matrix(1.3333333,0,0,-1.3333333,343.57733,375.1404)" />
      <path
         id="path19"
         d="M 0,0 V 0 C 0,-12.412 10.063,-22.475 22.475,-22.475 10.063,-22.475 0,-32.538 0,-44.948 0,-32.538 -10.063,-22.475 -22.475,-22.475 -10.063,-22.475 0,-12.412 0,0"
         style="fill:#204497;fill-opacity:1;fill-rule:nonzero;stroke:none"
         transform="matrix(1.3333333,0,0,-1.3333333,150.59293,298.708)" />
      <path
         id="path20"
         d="m 0,0 h 0.5 c -0.006,5.106 2.267,10.86 5.85,14.476 3.574,3.631 9.564,6.199 14.593,6.19 h 0.504 l -0.102,11.45 H 20.85 C 12.178,32.12 4.61,28.935 -1.543,22.699 -7.701,16.474 -10.841,8.825 -10.836,0.062 c -0.005,-8.932 3.102,-16.675 9.203,-22.918 6.105,-6.262 13.632,-9.457 22.271,-9.452 h 0.491 l 0.194,10.45 h -0.509 c -2.458,-0.003 -5.322,0.958 -8.007,2.398 -2.687,1.436 -5.199,3.344 -6.986,5.177 C 2.281,-10.664 0.498,-5.245 0.5,0 H 0 -0.5 c 0.002,-5.465 1.839,-11.119 5.605,-14.981 1.871,-1.917 4.449,-3.872 7.23,-5.361 2.782,-1.486 5.765,-2.513 8.479,-2.516 v 0.5 l -0.5,0.009 -0.176,-9.45 0.5,-0.009 v 0.5 c -8.392,0.005 -15.611,3.066 -21.555,9.15 -5.926,6.075 -8.915,13.519 -8.919,22.22 0.004,8.524 3.02,15.873 9.004,21.934 5.993,6.061 13.255,9.115 21.682,9.12 v 0.5 l -0.5,-0.005 0.093,-10.45 0.5,0.005 v 0.5 C 15.586,21.656 9.442,19.017 5.638,15.179 1.846,11.332 -0.494,5.394 -0.5,0 Z"
         style="fill:#204497;fill-opacity:1;fill-rule:nonzero;stroke:none"
         transform="matrix(1.3333333,0,0,-1.3333333,865.4944,400.5352)" />
      <path
         id="path21"
         d="m 0,0 -9.462,-6.478 0.565,-0.825 9.462,6.478"
         style="fill:#204497;fill-opacity:1;fill-rule:nonzero;stroke:none"
         transform="matrix(1.3333333,0,0,-1.3333333,892.91747,357.83067)" />
      <path
         id="path22"
         d="m 0,0 -9.71,4.037 -12.612,-3.3 -1.208,-11.187 -7.923,-11.267 9.092,-13.568 v -9.307 l 11.48,-1.012 10.068,-8.219 0.633,0.775 -10.307,8.413 -10.875,0.959 v 8.696 l -8.878,13.25 7.677,10.916 1.162,10.758 11.618,3.04 9.399,-3.907 z"
         style="fill:#204497;fill-opacity:1;fill-rule:nonzero;stroke:none"
         transform="matrix(1.3333333,0,0,-1.3333333,893.6736,371.69867)" />
      <path
         id="path23"
         d="M 0,0 -10.142,-1.11 -21.153,8.729 -21.82,7.983 -10.476,-2.152 0.109,-0.994 Z"
         style="fill:#204497;fill-opacity:1;fill-rule:nonzero;stroke:none"
         transform="matrix(1.3333333,0,0,-1.3333333,893.17373,429.6832)" />
      <path
         id="path24"
         d="m 0,0 0.779,13.018 -1.911,11.248 9.016,5.03 -0.487,0.873 -9.633,-5.374 2.01,-11.831 L -0.998,0.06 Z"
         style="fill:#204497;fill-opacity:1;fill-rule:nonzero;stroke:none"
         transform="matrix(1.3333333,0,0,-1.3333333,865.19053,418.58173)" />
      <path
         id="path25"
         d="M 0,0 3.976,8.941 3.062,9.347 -0.914,0.406"
         style="fill:#204497;fill-opacity:1;fill-rule:nonzero;stroke:none"
         transform="matrix(1.3333333,0,0,-1.3333333,875.9868,379.2096)" />
      <path
         id="path26"
         d="m 0,0 c 0,-0.866 -0.702,-1.568 -1.568,-1.568 -0.866,0 -1.568,0.702 -1.568,1.568 0,0.866 0.702,1.568 1.568,1.568 C -0.702,1.568 0,0.866 0,0"
         style="fill:#204497;fill-opacity:1;fill-rule:nonzero;stroke:none"
         transform="matrix(1.3333333,0,0,-1.3333333,853.80333,400.45227)" />
      <path
         id="path27"
         d="m 0,0 c 0.489,-0.715 0.307,-1.69 -0.408,-2.18 -0.715,-0.489 -1.691,-0.306 -2.18,0.408 -0.489,0.715 -0.306,1.691 0.408,2.18 C -1.465,0.897 -0.489,0.715 0,0"
         style="fill:#204497;fill-opacity:1;fill-rule:nonzero;stroke:none"
         transform="matrix(1.3333333,0,0,-1.3333333,866.0176,429.7224)" />
      <path
         id="path28"
         d="m 0,0 c 0,-0.866 -0.702,-1.568 -1.568,-1.568 -0.866,0 -1.568,0.702 -1.568,1.568 0,0.866 0.702,1.568 1.568,1.568 C -0.702,1.568 0,0.866 0,0"
         style="fill:#204497;fill-opacity:1;fill-rule:nonzero;stroke:none"
         transform="matrix(1.3333333,0,0,-1.3333333,881.51973,431.858)" />
      <path
         id="path29"
         d="m 0,0 c 0.489,-0.715 0.307,-1.69 -0.408,-2.18 -0.715,-0.489 -1.691,-0.306 -2.18,0.408 -0.489,0.715 -0.306,1.691 0.408,2.18 C -1.465,0.897 -0.489,0.715 0,0"
         style="fill:#204497;fill-opacity:1;fill-rule:nonzero;stroke:none"
         transform="matrix(1.3333333,0,0,-1.3333333,866.25027,417.3608)" />
      <path
         id="path30"
         d="m 0,0 c 0.489,-0.715 0.307,-1.69 -0.408,-2.18 -0.715,-0.489 -1.691,-0.306 -2.18,0.408 -0.489,0.715 -0.306,1.691 0.408,2.18 C -1.465,0.897 -0.489,0.715 0,0"
         style="fill:#204497;fill-opacity:1;fill-rule:nonzero;stroke:none"
         transform="matrix(1.3333333,0,0,-1.3333333,865.95787,369.01293)" />
      <path
         id="path31"
         d="m 0,0 c 0.489,-0.715 0.307,-1.69 -0.408,-2.18 -0.715,-0.489 -1.691,-0.306 -2.18,0.408 -0.489,0.715 -0.306,1.691 0.408,2.18 C -1.465,0.897 -0.489,0.715 0,0"
         style="fill:#204497;fill-opacity:1;fill-rule:nonzero;stroke:none"
         transform="matrix(1.3333333,0,0,-1.3333333,864.67,384.69373)" />
      <path
         id="path32"
         d="m 0,0 c 0.489,-0.715 0.307,-1.69 -0.408,-2.18 -0.715,-0.489 -1.691,-0.306 -2.18,0.408 -0.489,0.715 -0.306,1.691 0.408,2.18 C -1.465,0.897 -0.489,0.715 0,0"
         style="fill:#204497;fill-opacity:1;fill-rule:nonzero;stroke:none"
         transform="matrix(1.3333333,0,0,-1.3333333,882.4036,365.83653)" />
      <path
         id="path33"
         d="m 0,0 c 0.489,-0.715 0.307,-1.69 -0.408,-2.18 -0.715,-0.489 -1.691,-0.306 -2.18,0.408 -0.489,0.715 -0.306,1.691 0.408,2.18 C -1.465,0.897 -0.489,0.715 0,0"
         style="fill:#204497;fill-opacity:1;fill-rule:nonzero;stroke:none"
         transform="matrix(1.3333333,0,0,-1.3333333,895.01933,357.1996)" />
      <path
         id="path34"
         d="m 0,0 c 0.489,-0.715 0.307,-1.69 -0.408,-2.18 -0.715,-0.489 -1.691,-0.306 -2.18,0.408 -0.489,0.715 -0.306,1.691 0.408,2.18 C -1.465,0.897 -0.489,0.715 0,0"
         style="fill:#204497;fill-opacity:1;fill-rule:nonzero;stroke:none"
         transform="matrix(1.3333333,0,0,-1.3333333,895.01933,371.10387)" />
      <path
         id="path35"
         d="m 0,0 c 0.489,-0.715 0.307,-1.69 -0.408,-2.18 -0.715,-0.489 -1.691,-0.306 -2.18,0.408 -0.489,0.715 -0.306,1.691 0.408,2.18 C -1.465,0.897 -0.489,0.715 0,0"
         style="fill:#204497;fill-opacity:1;fill-rule:nonzero;stroke:none"
         transform="matrix(1.3333333,0,0,-1.3333333,877.1028,377.7576)" />
      <path
         id="path36"
         d="m 0,0 c 0.489,-0.715 0.307,-1.69 -0.408,-2.18 -0.715,-0.489 -1.691,-0.306 -2.18,0.408 -0.489,0.715 -0.306,1.691 0.408,2.18 C -1.465,0.897 -0.489,0.715 0,0"
         style="fill:#204497;fill-opacity:1;fill-rule:nonzero;stroke:none"
         transform="matrix(1.3333333,0,0,-1.3333333,867.28413,400.07947)" />
      <path
         id="path37"
         d="m 0,0 c 0.489,-0.715 0.307,-1.69 -0.408,-2.18 -0.715,-0.489 -1.691,-0.306 -2.18,0.408 -0.489,0.715 -0.306,1.691 0.408,2.18 C -1.465,0.897 -0.489,0.715 0,0"
         style="fill:#204497;fill-opacity:1;fill-rule:nonzero;stroke:none"
         transform="matrix(1.3333333,0,0,-1.3333333,894.73707,441.76493)" />
      <path
         id="path38"
         d="m 0,0 c 0.489,-0.715 0.307,-1.69 -0.408,-2.18 -0.715,-0.489 -1.691,-0.306 -2.18,0.408 -0.489,0.715 -0.306,1.691 0.408,2.18 C -1.465,0.897 -0.489,0.715 0,0"
         style="fill:#204497;fill-opacity:1;fill-rule:nonzero;stroke:none"
         transform="matrix(1.3333333,0,0,-1.3333333,894.73707,429.23933)" />
      <path
         id="path39"
         d="m 0,0 c -1.798,-3.207 -4.406,-5.786 -7.752,-7.671 -3.088,-1.738 -6.378,-2.68 -9.793,-2.826 -0.045,0.127 -0.1,0.251 -0.179,0.367 -0.49,0.714 -1.466,0.897 -2.18,0.408 -0.233,-0.16 -0.403,-0.374 -0.518,-0.611 -2.062,0.298 -4.299,1.13 -6.428,2.27 -2.686,1.437 -5.198,3.345 -6.986,5.178 -3.088,3.157 -4.838,7.685 -5.233,12.272 0.12,0.044 0.237,0.098 0.347,0.173 0.714,0.489 0.897,1.465 0.408,2.18 -0.2,0.291 -0.482,0.489 -0.793,0.594 0.249,4.861 2.433,10.142 5.8,13.54 0.112,0.113 0.232,0.222 0.349,0.333 0.495,-0.254 1.108,-0.243 1.6,0.094 0.569,0.39 0.794,1.087 0.617,1.716 3.059,2.143 6.917,3.627 10.487,3.966 0.04,-0.098 0.091,-0.193 0.153,-0.283 0.49,-0.715 1.466,-0.898 2.18,-0.408 0.479,0.327 0.712,0.873 0.671,1.413 5.478,-0.252 10.03,-2.26 13.862,-6.17 C 0.725,22.34 2.724,17.252 2.724,10.983 2.724,6.917 1.807,3.223 0,0 m -31.071,29.003 2.659,5.979 c 0.351,-0.033 0.715,0.045 1.029,0.26 0.112,0.076 0.205,0.167 0.29,0.264 l 6.215,-2.584 c -3.518,-0.435 -7.184,-1.867 -10.193,-3.919 m -9.757,-7.983 c 0.048,0.026 0.099,0.047 0.145,0.079 0.528,0.362 0.764,0.989 0.654,1.581 l 5.069,2.828 c -2.449,-2.906 -4.16,-6.689 -4.846,-10.507 z m 13.041,-32.456 c -0.249,0.536 -0.789,0.91 -1.419,0.91 -0.281,0 -0.541,-0.08 -0.769,-0.21 l -8.97,8.014 c 0.203,0.476 0.17,1.042 -0.145,1.501 -0.181,0.264 -0.429,0.455 -0.706,0.567 l 0.369,6.169 c 0.855,-3.42 2.466,-6.627 4.876,-9.099 1.871,-1.916 4.448,-3.871 7.23,-5.36 1.525,-0.815 3.111,-1.483 4.679,-1.929 z m -11.248,-0.294 8.309,-0.732 c 0.166,-0.688 0.782,-1.2 1.52,-1.2 0.307,0 0.591,0.091 0.832,0.243 l 7.89,-6.44 c -0.002,-0.006 -0.003,-0.011 -0.005,-0.017 -7.132,0.315 -13.382,2.916 -18.687,7.772 0.063,0.119 0.111,0.244 0.141,0.374 m 11.705,49.514 c -0.523,0.393 -1.255,0.436 -1.824,0.046 -0.411,-0.281 -0.639,-0.724 -0.672,-1.185 l -9.216,-2.412 c -0.007,0.153 -0.038,0.305 -0.092,0.453 5.308,4.822 11.545,7.428 18.647,7.783 z m 0.564,-0.825 7.021,4.806 c 0.139,-0.104 0.29,-0.183 0.451,-0.236 l 0.066,-7.44 c -0.161,-0.045 -0.319,-0.11 -0.465,-0.21 -0.106,-0.073 -0.197,-0.159 -0.279,-0.251 l -6.739,2.802 c 0.012,0.177 -0.005,0.354 -0.055,0.529 m -12.376,-47.676 c -0.035,0.077 -0.073,0.153 -0.122,0.224 -0.162,0.236 -0.379,0.408 -0.62,0.523 v 6.384 c 0.093,0.031 0.182,0.072 0.27,0.121 l 8.952,-7.999 z m 18.687,-0.923 c 0.039,-0.09 0.085,-0.178 0.143,-0.262 0.231,-0.337 0.571,-0.551 0.94,-0.637 l -0.119,-6.384 c -0.124,-0.039 -0.244,-0.092 -0.358,-0.164 l -7.893,6.443 c 0.026,0.07 0.05,0.14 0.067,0.214 z M -40.902,9.968 c 0.181,-0.265 0.429,-0.455 0.706,-0.567 l -0.598,-9.997 -7.727,11.531 c 0.058,0.165 0.096,0.34 0.096,0.525 0,0.094 -0.012,0.186 -0.028,0.275 l 6.443,9.161 c 0.065,-0.019 0.13,-0.038 0.197,-0.048 l 1.464,-8.621 c -0.048,-0.026 -0.098,-0.047 -0.145,-0.079 -0.714,-0.49 -0.897,-1.466 -0.408,-2.18 m 7.772,18.921 c -0.528,-0.362 -0.763,-0.989 -0.654,-1.58 l -6.734,-3.757 c -0.119,0.108 -0.253,0.193 -0.395,0.259 l 0.964,8.922 c 0.079,0.037 0.158,0.076 0.232,0.127 0.1,0.068 0.186,0.147 0.265,0.232 l 9.875,2.585 c 0.006,-0.009 0.009,-0.018 0.015,-0.027 0.068,-0.1 0.148,-0.187 0.234,-0.266 L -32.1,29.149 c -0.352,0.033 -0.716,-0.045 -1.03,-0.26 m -8.025,3.799 c 0.062,-0.023 0.126,-0.039 0.19,-0.054 l -0.941,-8.712 c -0.191,-0.042 -0.378,-0.118 -0.548,-0.235 -0.715,-0.489 -0.898,-1.465 -0.409,-2.18 0.01,-0.014 0.023,-0.025 0.033,-0.038 l -6.184,-8.793 c -0.133,0.107 -0.282,0.193 -0.445,0.253 0.319,7.58 3.101,14.193 8.304,19.759 M -49.46,9.991 c 0.098,0.035 0.191,0.08 0.278,0.133 l 7.56,-11.281 c -0.401,-0.524 -0.448,-1.262 -0.055,-1.836 0.2,-0.292 0.482,-0.49 0.794,-0.595 v -6.257 c -0.138,-0.03 -0.272,-0.084 -0.401,-0.152 -5.126,5.58 -7.867,12.269 -8.176,19.988 M 2.248,41.624 v -7.679 c -2.329,2.493 -4.91,4.492 -7.711,5.962 -3.55,1.863 -7.504,2.919 -11.779,3.147 -0.007,0.292 -0.093,0.586 -0.271,0.845 -0.489,0.715 -1.465,0.898 -2.18,0.408 -0.302,-0.207 -0.502,-0.502 -0.604,-0.827 -7.394,-0.315 -13.945,-3.016 -19.458,-8.007 -0.514,0.33 -1.197,0.342 -1.734,-0.025 -0.696,-0.477 -0.882,-1.413 -0.439,-2.122 -5.334,-5.72 -8.212,-12.587 -8.532,-20.377 -0.636,-0.199 -1.101,-0.787 -1.101,-1.489 0,-0.702 0.464,-1.289 1.1,-1.489 0.312,-7.964 3.172,-14.937 8.485,-20.694 -0.224,-0.484 -0.199,-1.069 0.124,-1.541 0.439,-0.641 1.268,-0.85 1.95,-0.534 5.479,-5.037 12.01,-7.761 19.394,-8.078 0.045,-0.146 0.105,-0.288 0.196,-0.42 0.489,-0.715 1.465,-0.898 2.179,-0.408 0.414,0.283 0.643,0.731 0.673,1.196 4.142,0.22 8.033,1.216 11.591,2.971 2.899,1.43 5.62,3.381 8.117,5.82 v -7.36 h 10.505 v 60.701 z"
         style="fill:#204497;fill-opacity:1;fill-rule:nonzero;stroke:none"
         transform="matrix(1.3333333,0,0,-1.3333333,918.36973,415.73213)" />
    </g>
  </g>
</svg>
