<?xml version="1.0" encoding="UTF-8" standalone="no"?>
<!-- Created with Inkscape (http://www.inkscape.org/) -->

<svg
   width="132.36499mm"
   height="28.592297mm"
   viewBox="0 0 132.36499 28.592297"
   version="1.1"
   id="svg1"
   xmlns="http://www.w3.org/2000/svg"
   xmlns:svg="http://www.w3.org/2000/svg">
  <defs
     id="defs1" />
  <g
     id="layer1"
     transform="translate(-47.587256,-78.354532)">
    <g
       id="g1"
       transform="translate(-49.196319,-46.280982)">
      <path
         id="path1-4"
         d="m 119.79449,145.45207 c -2.28415,2.65797 -5.16097,4.00611 -8.54953,4.00611 -3.08583,0 -5.67238,-0.99825 -7.69018,-2.96658 -2.01354,-1.96407 -3.03505,-4.452 -3.03505,-7.39532 0,-1.95031 0.45637,-3.7283 1.35667,-5.28415 0.89996,-1.5539 2.18816,-2.80998 3.82789,-3.73387 1.64333,-0.92617 3.45506,-1.39532 5.38473,-1.39532 1.77012,0 3.41443,0.35808 4.88741,1.06443 1.46937,0.70503 2.74806,1.75734 3.80037,3.12646 l 0.31975,0.41706 2.83193,-2.17178 -0.29944,-0.41411 c -1.26854,-1.75899 -2.91842,-3.14546 -4.90346,-4.12013 -1.9798,-0.97171 -4.22431,-1.46478 -6.67129,-1.46478 -4.05886,0 -7.48738,1.33472 -10.19023,3.96647 -2.707767,2.63536 -4.080486,5.9276 -4.080486,9.78465 0,3.65654 1.132248,6.82363 3.365616,9.41574 2.66583,3.07207 6.34629,4.63023 10.93983,4.63023 2.40832,0 4.62334,-0.46195 6.58349,-1.37338 1.96505,-0.91405 3.62837,-2.22584 4.94343,-3.89964 l 0.33155,-0.42131 -2.8303,-2.14656 z"
         style="fill:#204497;fill-opacity:1;fill-rule:nonzero;stroke:none;stroke-width:0.327618" />
      <path
         id="path2"
         d="m 126.02041,152.27645 h 3.47669 v -27.15626 h -3.47669 z"
         style="fill:#204497;fill-opacity:1;fill-rule:nonzero;stroke:none;stroke-width:0.327618" />
      <path
         id="path3"
         d="m 134.84704,124.63551 c -0.68243,0 -1.27771,0.24964 -1.76979,0.74402 -0.49012,0.49307 -0.73878,1.09523 -0.73878,1.79043 0,0.68407 0.24866,1.28066 0.73943,1.77373 0.49077,0.49306 1.08606,0.74336 1.76914,0.74336 0.6939,0 1.29507,-0.2503 1.78585,-0.74336 0.49077,-0.49241 0.73943,-1.08966 0.73943,-1.77373 0,-0.6952 -0.24866,-1.29802 -0.73943,-1.79108 -0.49078,-0.49307 -1.09195,-0.74337 -1.78585,-0.74337"
         style="fill:#204497;fill-opacity:1;fill-rule:nonzero;stroke:none;stroke-width:0.327618" />
      <path
         id="path4"
         d="m 133.1176,152.27645 h 3.47636 v -19.88609 h -3.47636 z"
         style="fill:#204497;fill-opacity:1;fill-rule:nonzero;stroke:none;stroke-width:0.327618" />
      <path
         id="path5"
         d="m 154.62711,133.06486 c -1.1732,-0.76925 -2.53085,-1.15944 -4.03658,-1.15944 -1.46773,0 -2.84504,0.34531 -4.09425,1.02479 -0.86524,0.47079 -1.6833,1.11325 -2.44239,1.91755 v -2.45714 h -3.4757 v 19.88609 h 3.4757 v -7.43267 c 0,-2.42929 0.11172,-4.1103 0.33024,-4.9929 0.33941,-1.31604 1.05296,-2.43551 2.12133,-3.32794 1.07196,-0.89637 2.24975,-1.33177 3.60118,-1.33177 1.15419,0 2.09184,0.27946 2.78966,0.83018 0.69619,0.54942 1.17681,1.39566 1.43169,2.52627 0.1684,0.68308 0.25358,2.10232 0.25358,4.21775 v 9.51108 h 3.47701 v -10.22037 c 0,-2.65862 -0.26897,-4.57814 -0.82166,-5.86731 -0.55827,-1.30261 -1.43628,-2.35328 -2.60981,-3.12417"
         style="fill:#204497;fill-opacity:1;fill-rule:nonzero;stroke:none;stroke-width:0.327618" />
      <path
         id="path6"
         d="m 165.37839,145.0467 c -0.59528,-1.23709 -0.86688,-2.37884 -0.80791,-3.40035 0.0917,-1.66069 0.73157,-3.06323 1.95556,-4.28754 0.73419,-0.73419 1.60139,-1.28721 2.5777,-1.64267 0.97138,-0.35481 1.91885,-0.4839 2.81718,-0.38364 0.73452,0.0816 1.53424,0.34629 2.38375,0.78792 z m 13.52506,-9.82527 c -1.91427,-1.87921 -4.04445,-2.96625 -6.32991,-3.22998 -3.23097,-0.38463 -6.07633,0.62738 -8.45648,3.00753 -2.31528,2.31528 -3.29354,5.08594 -2.90958,8.23665 0.29846,2.46729 1.3452,4.61417 3.11205,6.38101 1.87856,1.87889 4.23348,2.93645 6.9989,3.14383 2.79622,0.21033 5.36868,-0.83707 7.64399,-3.11237 1.02118,-1.02119 1.79371,-2.11117 2.29627,-3.23916 0.5029,-1.12963 0.78399,-2.33756 0.83543,-3.5907 0.0531,-1.25084 -0.16152,-2.62291 -0.63492,-4.0795 l -0.16119,-0.49372 -3.17397,0.98679 0.12024,0.48258 c 0.33221,1.33209 0.47243,2.40308 0.41706,3.18412 -0.0544,0.77219 -0.27258,1.57617 -0.65,2.39161 -0.37676,0.8161 -0.8885,1.54996 -1.51949,2.18095 -1.31178,1.31146 -2.83095,1.93492 -4.64431,1.90379 -1.63875,-0.0275 -3.16119,-0.63689 -4.5326,-1.81304 l 11.96756,-11.96789 z"
         style="fill:#204497;fill-opacity:1;fill-rule:nonzero;stroke:none;stroke-width:0.327618" />
      <path
         id="path7"
         d="m 190.8258,125.39719 h -3.47636 v 6.99334 h -3.30632 v 3.1471 h 3.30632 v 16.73899 h 3.47636 v -16.73899 h 3.84263 v -3.1471 h -3.84263 z"
         style="fill:#204497;fill-opacity:1;fill-rule:nonzero;stroke:none;stroke-width:0.327618" />
      <path
         id="path8"
         d="m 208.05576,132.61343 c -0.83837,-0.46948 -1.64661,-0.70766 -2.40439,-0.70766 -0.98842,0 -1.94769,0.29978 -2.85028,0.8908 -0.52222,0.34203 -1.03101,0.78989 -1.52178,1.33734 v -1.74359 h -3.52812 v 19.88609 h 3.52812 v -6.89669 c 0,-3.20246 0.14513,-5.34443 0.43082,-6.36627 0.36267,-1.29082 0.88555,-2.24549 1.55585,-2.8375 0.65589,-0.5812 1.30654,-0.86295 1.98799,-0.86295 0.27127,0 0.6323,0.096 1.07164,0.28601 l 0.41771,0.17987 1.79175,-2.8968 z"
         style="fill:#204497;fill-opacity:1;fill-rule:nonzero;stroke:none;stroke-width:0.327618" />
      <path
         id="path20"
         d="m 211.9785,142.29275 h 0.16381 c -0.002,-1.67282 0.74271,-3.55793 1.91656,-4.7426 1.17091,-1.18958 3.13334,-2.0309 4.78094,-2.02796 h 0.16512 l -0.0334,-3.75122 h -0.16217 c -2.84111,-0.001 -5.32052,1.04215 -7.33635,3.08518 -2.01748,2.03942 -3.0462,4.54537 -3.04456,7.41629 -0.002,2.92628 1.01627,5.46303 3.01507,7.50835 2.00011,2.05154 4.46609,3.09828 7.29638,3.09665 h 0.16086 l 0.0636,-3.42361 h -0.16682 c -0.80528,9.8e-4 -1.74358,-0.31386 -2.62323,-0.78563 -0.88031,-0.47046 -1.70329,-1.09556 -2.28875,-1.69608 -1.15976,-1.18565 -1.74391,-2.96101 -1.74325,-4.67937 h -0.16381 -0.16381 c 6.6e-4,1.79043 0.60249,3.64279 1.8363,4.90805 0.61297,0.62804 1.45757,1.26853 2.36868,1.75636 0.91143,0.48684 1.88872,0.8233 2.77787,0.82428 v -0.1638 l -0.16381,-0.003 -0.0577,3.09599 0.16381,0.003 v -0.16381 c -2.74937,-0.002 -5.11444,-1.00448 -7.06181,-2.99771 -1.94146,-1.99028 -2.92071,-4.42907 -2.92202,-7.27967 0.001,-2.79262 0.98941,-5.20028 2.94987,-7.18598 1.96342,-1.98569 4.34258,-2.98624 7.10342,-2.98787 v -0.16381 l -0.16381,0.002 0.0305,3.42361 0.16381,-0.002 v -0.16381 c -1.75505,0.003 -3.76794,0.86786 -5.0142,2.12525 -1.24233,1.26035 -2.00895,3.20575 -2.01092,4.97292 z"
         style="fill:#204497;fill-opacity:1;fill-rule:nonzero;stroke:none;stroke-width:0.327618" />
      <path
         id="path21"
         d="m 218.71672,131.79966 -3.09992,2.12231 0.1851,0.27028 3.09992,-2.12231"
         style="fill:#204497;fill-opacity:1;fill-rule:nonzero;stroke:none;stroke-width:0.327618" />
      <path
         id="path22"
         d="m 218.90251,135.20722 -3.18117,-1.32259 -4.13192,1.08114 -0.39576,3.66506 -2.59572,3.69127 2.9787,4.44512 v 3.04915 l 3.76106,0.33155 3.29846,2.69269 0.20738,-0.25391 -3.37676,-2.75625 -3.56285,-0.31418 v -2.84897 l -2.90859,-4.34094 2.51512,-3.57628 0.3807,-3.52451 3.80626,-0.99596 3.07928,1.28 z"
         style="fill:#204497;fill-opacity:1;fill-rule:nonzero;stroke:none;stroke-width:0.327618" />
      <path
         id="path23"
         d="m 218.77968,149.45481 -3.3227,0.36366 -3.60741,-3.22344 -0.21852,0.2444 3.7165,3.32041 3.46784,-0.37938 z"
         style="fill:#204497;fill-opacity:1;fill-rule:nonzero;stroke:none;stroke-width:0.327618" />
      <path
         id="path24"
         d="m 211.90383,146.72702 0.25521,-4.26493 -0.62607,-3.68505 2.9538,-1.64792 -0.15955,-0.28601 -3.15594,1.76062 0.65851,3.87605 -0.25292,4.22758 z"
         style="fill:#204497;fill-opacity:1;fill-rule:nonzero;stroke:none;stroke-width:0.327618" />
      <path
         id="path25"
         d="m 214.55662,137.05276 1.30261,-2.92923 -0.29944,-0.13302 -1.30261,2.92924"
         style="fill:#204497;fill-opacity:1;fill-rule:nonzero;stroke:none;stroke-width:0.327618" />
      <path
         id="path26"
         d="m 209.10584,142.27237 c 0,0.28372 -0.22999,0.51371 -0.51371,0.51371 -0.28371,0 -0.5137,-0.22999 -0.5137,-0.51371 0,-0.28372 0.22999,-0.51371 0.5137,-0.51371 0.28372,0 0.51371,0.22999 0.51371,0.51371"
         style="fill:#204497;fill-opacity:1;fill-rule:nonzero;stroke:none;stroke-width:0.327618" />
      <path
         id="path27"
         d="m 212.10705,149.46444 c 0.16021,0.23425 0.10058,0.55367 -0.13367,0.71421 -0.23425,0.1602 -0.554,0.10025 -0.71421,-0.13367 -0.1602,-0.23425 -0.10025,-0.554 0.13367,-0.71421 0.23425,-0.1602 0.554,-0.10058 0.71421,0.13367"
         style="fill:#204497;fill-opacity:1;fill-rule:nonzero;stroke:none;stroke-width:0.327618" />
      <path
         id="path28"
         d="m 215.91614,149.98918 c 0,0.28372 -0.22999,0.51371 -0.51371,0.51371 -0.28371,0 -0.5137,-0.22999 -0.5137,-0.51371 0,-0.28372 0.22999,-0.51371 0.5137,-0.51371 0.28372,0 0.51371,0.22999 0.51371,0.51371"
         style="fill:#204497;fill-opacity:1;fill-rule:nonzero;stroke:none;stroke-width:0.327618" />
      <path
         id="path29"
         d="m 212.16422,146.42703 c 0.16021,0.23425 0.10058,0.55367 -0.13367,0.71421 -0.23425,0.1602 -0.554,0.10025 -0.71421,-0.13367 -0.1602,-0.23425 -0.10025,-0.554 0.13367,-0.71421 0.23425,-0.1602 0.554,-0.10058 0.71421,0.13367"
         style="fill:#204497;fill-opacity:1;fill-rule:nonzero;stroke:none;stroke-width:0.327618" />
      <path
         id="path30"
         d="m 212.09238,134.5473 c 0.16021,0.23425 0.10058,0.55367 -0.13367,0.71421 -0.23425,0.1602 -0.554,0.10025 -0.71421,-0.13367 -0.1602,-0.23425 -0.10025,-0.554 0.13367,-0.71421 0.23425,-0.1602 0.554,-0.10058 0.71421,0.13367"
         style="fill:#204497;fill-opacity:1;fill-rule:nonzero;stroke:none;stroke-width:0.327618" />
      <path
         id="path31"
         d="m 211.77593,138.40028 c 0.16021,0.23425 0.10058,0.55367 -0.13367,0.71421 -0.23425,0.1602 -0.554,0.10025 -0.71421,-0.13367 -0.1602,-0.23425 -0.10025,-0.554 0.13367,-0.71421 0.23425,-0.1602 0.554,-0.10058 0.71421,0.13367"
         style="fill:#204497;fill-opacity:1;fill-rule:nonzero;stroke:none;stroke-width:0.327618" />
      <path
         id="path32"
         d="m 216.13332,133.76681 c 0.16021,0.23425 0.10058,0.55367 -0.13367,0.71421 -0.23425,0.1602 -0.554,0.10025 -0.71421,-0.13367 -0.1602,-0.23425 -0.10025,-0.554 0.13367,-0.71421 0.23425,-0.1602 0.554,-0.10058 0.71421,0.13367"
         style="fill:#204497;fill-opacity:1;fill-rule:nonzero;stroke:none;stroke-width:0.327618" />
      <path
         id="path33"
         d="m 219.23317,131.6446 c 0.16021,0.23425 0.10058,0.55367 -0.13367,0.71421 -0.23425,0.1602 -0.554,0.10025 -0.71421,-0.13367 -0.1602,-0.23425 -0.10025,-0.554 0.13367,-0.71421 0.23425,-0.1602 0.554,-0.10058 0.71421,0.13367"
         style="fill:#204497;fill-opacity:1;fill-rule:nonzero;stroke:none;stroke-width:0.327618" />
      <path
         id="path34"
         d="m 219.23317,135.06107 c 0.16021,0.23425 0.10058,0.55367 -0.13367,0.71421 -0.23425,0.1602 -0.554,0.10025 -0.71421,-0.13367 -0.1602,-0.23425 -0.10025,-0.554 0.13367,-0.71421 0.23425,-0.1602 0.554,-0.10058 0.71421,0.13367"
         style="fill:#204497;fill-opacity:1;fill-rule:nonzero;stroke:none;stroke-width:0.327618" />
      <path
         id="path35"
         d="m 214.83084,136.69598 c 0.16021,0.23425 0.10058,0.55367 -0.13367,0.71421 -0.23425,0.1602 -0.554,0.10025 -0.71421,-0.13367 -0.1602,-0.23425 -0.10025,-0.554 0.13367,-0.71421 0.23425,-0.1602 0.554,-0.10058 0.71421,0.13367"
         style="fill:#204497;fill-opacity:1;fill-rule:nonzero;stroke:none;stroke-width:0.327618" />
      <path
         id="path36"
         d="m 212.41826,142.18077 c 0.16021,0.23425 0.10058,0.55367 -0.13367,0.71421 -0.23425,0.1602 -0.554,0.10025 -0.71421,-0.13367 -0.1602,-0.23425 -0.10025,-0.554 0.13367,-0.71421 0.23425,-0.1602 0.554,-0.10058 0.71421,0.13367"
         style="fill:#204497;fill-opacity:1;fill-rule:nonzero;stroke:none;stroke-width:0.327618" />
      <path
         id="path37"
         d="m 219.16382,152.42345 c 0.16021,0.23425 0.10058,0.55367 -0.13367,0.71421 -0.23425,0.1602 -0.554,0.10025 -0.71421,-0.13367 -0.1602,-0.23425 -0.10025,-0.554 0.13367,-0.71421 0.23425,-0.1602 0.554,-0.10058 0.71421,0.13367"
         style="fill:#204497;fill-opacity:1;fill-rule:nonzero;stroke:none;stroke-width:0.327618" />
      <path
         id="path38"
         d="m 219.16382,149.34574 c 0.16021,0.23425 0.10058,0.55367 -0.13367,0.71421 -0.23425,0.1602 -0.554,0.10025 -0.71421,-0.13367 -0.1602,-0.23425 -0.10025,-0.554 0.13367,-0.71421 0.23425,-0.1602 0.554,-0.10058 0.71421,0.13367"
         style="fill:#204497;fill-opacity:1;fill-rule:nonzero;stroke:none;stroke-width:0.327618" />
      <path
         id="path39"
         d="m 224.97068,146.02684 c -0.58906,1.05067 -1.44349,1.8956 -2.5397,2.51316 -1.01168,0.5694 -2.08954,0.87801 -3.20836,0.92585 -0.0147,-0.0416 -0.0328,-0.0822 -0.0586,-0.12024 -0.16054,-0.23392 -0.48029,-0.29387 -0.71421,-0.13367 -0.0763,0.0524 -0.13203,0.12253 -0.16971,0.20018 -0.67555,-0.0976 -1.40843,-0.37021 -2.10593,-0.7437 -0.87998,-0.47078 -1.70295,-1.09588 -2.28874,-1.6964 -1.01168,-1.03429 -1.58501,-2.51775 -1.71442,-4.02053 0.0393,-0.0144 0.0776,-0.0321 0.11368,-0.0567 0.23392,-0.1602 0.29388,-0.47996 0.13367,-0.71421 -0.0655,-0.0953 -0.15791,-0.1602 -0.2598,-0.1946 0.0816,-1.59255 0.79709,-3.3227 1.90018,-4.43595 0.0367,-0.037 0.076,-0.0727 0.11434,-0.1091 0.16217,0.0832 0.363,0.0796 0.52419,-0.0308 0.18642,-0.12777 0.26013,-0.35612 0.20214,-0.5622 1.00219,-0.70208 2.26614,-1.18827 3.43573,-1.29933 0.0131,0.0321 0.0298,0.0632 0.0501,0.0927 0.16053,0.23424 0.48029,0.2942 0.71421,0.13366 0.15693,-0.10713 0.23326,-0.28601 0.21983,-0.46292 1.79469,0.0826 3.28601,0.74042 4.54144,2.0214 1.34749,1.37436 2.0024,3.04128 2.0024,5.09512 0,1.3321 -0.30042,2.54232 -0.89243,3.59823 m -10.17942,-9.50191 0.87113,-1.95883 c 0.115,0.0108 0.23425,-0.0147 0.33712,-0.0852 0.0367,-0.0249 0.0672,-0.0547 0.095,-0.0865 l 2.03615,0.84657 c -1.15256,0.14251 -2.35361,0.61166 -3.33941,1.28393 m -3.19657,2.61538 c 0.0157,-0.009 0.0324,-0.0154 0.0475,-0.0259 0.17299,-0.1186 0.2503,-0.32402 0.21427,-0.51797 l 1.66069,-0.9265 c -0.80234,0.95206 -1.36289,2.19143 -1.58764,3.44228 z m 4.27247,10.63317 c -0.0816,-0.1756 -0.25849,-0.29813 -0.46489,-0.29813 -0.0921,0 -0.17725,0.0262 -0.25194,0.0688 l -2.93874,-2.62553 c 0.0665,-0.15595 0.0557,-0.34138 -0.0475,-0.49176 -0.0593,-0.0865 -0.14055,-0.14906 -0.2313,-0.18576 l 0.12089,-2.02107 c 0.28011,1.12045 0.80791,2.17112 1.59747,2.98099 0.61297,0.62772 1.45724,1.26821 2.36868,1.75604 0.49961,0.26701 1.01922,0.48585 1.53292,0.63197 z m -3.68505,0.0963 2.72218,0.23982 c 0.0544,0.2254 0.25619,0.39314 0.49798,0.39314 0.10057,0 0.19362,-0.0298 0.27257,-0.0796 l 2.58491,2.10986 c -6.5e-4,0.002 -9.8e-4,0.004 -0.002,0.006 -2.33657,-0.1032 -4.38418,-0.95534 -6.1222,-2.54625 0.0206,-0.039 0.0364,-0.0799 0.0462,-0.12253 m 3.83477,-16.22168 c -0.17135,-0.12876 -0.41116,-0.14284 -0.59758,-0.0151 -0.13465,0.0921 -0.20935,0.23719 -0.22016,0.38822 l -3.01933,0.79022 c -0.002,-0.0501 -0.0124,-0.0999 -0.0301,-0.14841 1.739,-1.57978 3.78235,-2.43355 6.1091,-2.54985 z m 0.18477,0.27028 2.30021,-1.57453 c 0.0455,0.0341 0.095,0.0599 0.14776,0.0773 l 0.0216,2.43748 c -0.0528,0.0147 -0.10451,0.036 -0.15234,0.0688 -0.0347,0.0239 -0.0645,0.0521 -0.0914,0.0822 L 216.2193,134.092 c 0.004,-0.058 -0.002,-0.11597 -0.018,-0.17331 m -4.0546,15.61952 c -0.0115,-0.0252 -0.0239,-0.0501 -0.04,-0.0734 -0.0531,-0.0773 -0.12416,-0.13367 -0.20312,-0.17135 v -2.09151 c 0.0305,-0.0102 0.0596,-0.0236 0.0885,-0.0396 l 2.93283,2.62061 z m 6.1222,0.30239 c 0.0128,0.0295 0.0279,0.0583 0.0468,0.0858 0.0757,0.11041 0.18707,0.18052 0.30796,0.20869 l -0.039,2.09152 c -0.0406,0.0128 -0.0799,0.0301 -0.11729,0.0537 l -2.58589,-2.11085 c 0.009,-0.0229 0.0164,-0.0459 0.0219,-0.0701 z m -6.69881,-7.07917 c 0.0593,0.0868 0.14055,0.14907 0.2313,0.18576 l -0.19591,3.2752 -2.53151,-3.77776 c 0.019,-0.0541 0.0314,-0.11139 0.0314,-0.172 0,-0.0308 -0.004,-0.0609 -0.009,-0.0901 l 2.11084,-3.00131 c 0.0213,0.006 0.0426,0.0125 0.0645,0.0157 l 0.47964,2.82439 c -0.0157,0.009 -0.0321,0.0154 -0.0475,0.0259 -0.23392,0.16053 -0.29387,0.48028 -0.13367,0.7142 m 2.54625,-6.19886 c -0.17298,0.1186 -0.24997,0.32402 -0.21426,0.51764 l -2.20618,1.23086 c -0.039,-0.0354 -0.0829,-0.0632 -0.12941,-0.0849 l 0.31582,-2.92301 c 0.0259,-0.0121 0.0518,-0.0249 0.076,-0.0416 0.0328,-0.0223 0.0609,-0.0482 0.0868,-0.076 l 3.23523,-0.84689 c 0.002,0.003 0.003,0.006 0.005,0.009 0.0223,0.0328 0.0485,0.0613 0.0767,0.0872 l -0.90816,2.0427 c -0.11532,-0.0108 -0.23458,0.0147 -0.33745,0.0852 m -2.62913,-1.24462 c 0.0203,0.008 0.0413,0.0128 0.0622,0.0177 l -0.30828,2.85421 c -0.0626,0.0138 -0.12384,0.0387 -0.17954,0.077 -0.23425,0.16021 -0.2942,0.47996 -0.13399,0.71421 0.003,0.005 0.008,0.008 0.0108,0.0125 l -2.02599,2.88074 c -0.0436,-0.035 -0.0924,-0.0632 -0.14579,-0.0829 0.10451,-2.48335 1.01594,-4.64989 2.72054,-6.47341 m -2.72087,7.43595 c 0.0321,-0.0115 0.0626,-0.0262 0.0911,-0.0436 l 2.47679,3.69586 c -0.13138,0.17168 -0.14677,0.41346 -0.018,0.60151 0.0655,0.0957 0.15791,0.16053 0.26013,0.19493 v 2.04991 c -0.0452,0.01 -0.0891,0.0275 -0.13138,0.0498 -1.67937,-1.82811 -2.57737,-4.01955 -2.6786,-6.54843 m 16.94048,-10.36355 v 2.51578 c -0.76303,-0.81675 -1.60861,-1.47166 -2.52627,-1.95326 -1.16304,-0.61035 -2.45844,-0.95631 -3.85901,-1.03101 -0.002,-0.0957 -0.0305,-0.19198 -0.0888,-0.27684 -0.1602,-0.23424 -0.47996,-0.2942 -0.7142,-0.13367 -0.0989,0.0678 -0.16447,0.16447 -0.19788,0.27095 -2.42241,0.10319 -4.56864,0.98809 -6.3748,2.62323 -0.16839,-0.10811 -0.39216,-0.11204 -0.56809,0.008 -0.22802,0.15628 -0.28896,0.46293 -0.14382,0.69521 -1.74752,1.87397 -2.6904,4.12373 -2.79524,6.67587 -0.20836,0.0652 -0.36071,0.25784 -0.36071,0.48783 0,0.22998 0.15202,0.4223 0.36038,0.48782 0.10222,2.60915 1.03921,4.89363 2.77984,6.77973 -0.0734,0.15857 -0.0652,0.35022 0.0406,0.50486 0.14382,0.21 0.41542,0.27847 0.63885,0.17495 1.79502,1.65021 3.9347,2.54264 6.35383,2.6465 0.0147,0.0478 0.0344,0.0943 0.0642,0.1376 0.16021,0.23424 0.47996,0.2942 0.71388,0.13366 0.13563,-0.0927 0.21066,-0.23949 0.22049,-0.39183 1.35699,-0.0721 2.63175,-0.39838 3.79742,-0.97335 0.94976,-0.4685 1.84121,-1.10768 2.65928,-1.90674 v 2.41127 h 3.44162 v -19.88675 z"
         style="fill:#204497;fill-opacity:1;fill-rule:nonzero;stroke:none;stroke-width:0.327618" />
    </g>
  </g>
</svg>
