<?xml version="1.0" encoding="UTF-8" standalone="no"?>
<!-- Created with Inkscape (http://www.inkscape.org/) -->

<svg
   width="77.487839mm"
   height="14.533044mm"
   viewBox="0 0 77.487839 14.533044"
   version="1.1"
   id="svg1"
   xmlns="http://www.w3.org/2000/svg"
   xmlns:svg="http://www.w3.org/2000/svg">
  <defs
     id="defs1" />
  <g
     id="layer1"
     transform="translate(-95.3259,-180.86428)">
    <g
       id="g2"
       transform="translate(22.593865,20.042945)">
      <path
         id="path9"
         d="m 72.732038,172.48117 1.155181,-0.69324 c 0.813149,1.49689 1.752102,2.24484 2.817516,2.24484 0.456372,0 0.883914,-0.10582 1.284263,-0.31877 0.400349,-0.2123 0.705362,-0.497 0.91471,-0.8541 0.209348,-0.35678 0.314186,-0.73616 0.314186,-1.13651 0,-0.45572 -0.153653,-0.90193 -0.461287,-1.33996 -0.425248,-0.60347 -1.201375,-1.33013 -2.329037,-2.17997 -1.132903,-0.85607 -1.838265,-1.47526 -2.115758,-1.85727 -0.480288,-0.64016 -0.720104,-1.33307 -0.720104,-2.07873 0,-0.59135 0.141531,-1.12996 0.424593,-1.61647 0.28339,-0.48684 0.682428,-0.87015 1.196461,-1.15092 0.514033,-0.28012 1.073605,-0.42001 1.677405,-0.42001 0.640166,0 1.239052,0.15889 1.796658,0.47603 0.557606,0.31681 1.147318,0.90095 1.769137,1.75079 l -1.108659,0.84034 c -0.511412,-0.67719 -0.946817,-1.1234 -1.307197,-1.3393 -0.360707,-0.2159 -0.752538,-0.32336 -1.178114,-0.32336 -0.547778,0 -0.995959,0.16643 -1.344217,0.49896 -0.347931,0.33253 -0.521896,0.74206 -0.521896,1.2289 0,0.29551 0.06159,0.58152 0.184121,0.85901 0.12384,0.27717 0.348258,0.57857 0.674894,0.90554 0.178879,0.17265 0.764005,0.62477 1.755378,1.35765 1.176804,0.86884 1.983399,1.64202 2.421097,2.31921 0.436715,0.67784 0.655236,1.35797 0.655236,2.04204 0,0.98547 -0.373812,1.84154 -1.122419,2.5682 -0.747952,0.72665 -1.658075,1.09031 -2.730042,1.09031 -0.824942,0 -1.57355,-0.22016 -2.244839,-0.66048 -0.671617,-0.44064 -1.290488,-1.17811 -1.857267,-2.21273"
         style="fill:#204497;fill-opacity:1;fill-rule:nonzero;stroke:none;stroke-width:0.327618" />
      <path
         id="path10"
         d="m 88.101292,165.96747 c -1.075243,0 -1.999453,0.39773 -2.771977,1.19155 -0.773178,0.79513 -1.15944,1.75603 -1.15944,2.88304 0,0.72665 0.176258,1.40384 0.528775,2.03221 0.35219,0.62805 0.828547,1.1139 1.428088,1.45561 0.599541,0.3417 1.25707,0.51239 1.974554,0.51239 0.716828,0 1.375013,-0.17069 1.974554,-0.51239 0.599541,-0.34171 1.075898,-0.82756 1.428088,-1.45561 0.352189,-0.62837 0.528775,-1.30556 0.528775,-2.03221 0,-1.12701 -0.3879,-2.08791 -1.164027,-2.88304 -0.775472,-0.79382 -1.697717,-1.19155 -2.76739,-1.19155 m 0.0046,-1.26559 c 1.548978,0 2.831931,0.56023 3.850168,1.68166 0.925848,1.02217 1.388445,2.23272 1.388445,3.631 0,1.40417 -0.489134,2.63142 -1.466746,3.68144 -0.978595,1.05002 -2.235666,1.57552 -3.771867,1.57552 -1.542426,0 -2.803101,-0.5255 -3.781041,-1.57552 -0.977612,-1.05002 -1.466746,-2.27727 -1.466746,-3.68144 0,-1.39238 0.462597,-2.59965 1.388445,-3.62182 1.017582,-1.12701 2.304794,-1.69084 3.859342,-1.69084"
         style="fill:#204497;fill-opacity:1;fill-rule:nonzero;stroke:none;stroke-width:0.327618" />
      <path
         id="path11"
         d="m 95.543299,161.08016 h 1.292781 v 13.93261 h -1.292781 z"
         style="fill:#204497;fill-opacity:1;fill-rule:nonzero;stroke:none;stroke-width:0.327618" />
      <path
         id="path12"
         d="m 99.358938,164.96053 h 1.293432 v 4.69313 c 0,1.14601 0.0619,1.93426 0.18511,2.36573 0.18543,0.61559 0.5386,1.10243 1.05919,1.45954 0.52124,0.35743 1.14273,0.53565 1.8648,0.53565 0.72142,0 1.33373,-0.17363 1.83663,-0.52156 0.50256,-0.34826 0.84951,-0.80562 1.04117,-1.3724 0.12941,-0.38822 0.1946,-1.21055 0.1946,-2.46696 v -4.69313 h 1.3203 v 4.9336 c 0,1.38615 -0.16118,2.42962 -0.48454,3.13203 -0.32369,0.70209 -0.81053,1.25216 -1.45954,1.6489 -0.65,0.39773 -1.46478,0.59627 -2.44403,0.59627 -0.97925,0 -1.79666,-0.19854 -2.45255,-0.59627 -0.65655,-0.39674 -1.14634,-0.9514 -1.469697,-1.66266 -0.323359,-0.71159 -0.484875,-1.78191 -0.484875,-3.21098 z"
         style="fill:#204497;fill-opacity:1;fill-rule:nonzero;stroke:none;stroke-width:0.327618" />
      <path
         id="path13"
         d="m 112.15488,161.22781 h 1.29344 v 3.73288 h 2.05089 v 1.11718 h -2.05089 v 8.93447 h -1.29344 v -8.93447 h -1.76455 v -1.11718 h 1.76455 z"
         style="fill:#204497;fill-opacity:1;fill-rule:nonzero;stroke:none;stroke-width:0.327618" />
      <path
         id="path14"
         d="m 117.24603,164.96047 h 1.29278 v 10.05198 h -1.29278 z m 0.64181,-4.13913 c 0.2942,0 0.54548,0.10484 0.7545,0.31419 0.20804,0.20934 0.31288,0.46194 0.31288,0.75778 0,0.28928 -0.10484,0.53893 -0.31288,0.74828 -0.20902,0.20967 -0.4603,0.31418 -0.7545,0.31418 -0.28831,0 -0.53664,-0.10451 -0.74566,-0.31418 -0.20771,-0.20935 -0.31222,-0.459 -0.31222,-0.74828 0,-0.29584 0.10451,-0.54844 0.31222,-0.75778 0.20902,-0.20935 0.45735,-0.31419 0.74566,-0.31419"
         style="fill:#204497;fill-opacity:1;fill-rule:nonzero;stroke:none;stroke-width:0.327618" />
      <path
         id="path15"
         d="m 125.98122,165.96747 c -1.07524,0 -1.99945,0.39773 -2.77198,1.19155 -0.77318,0.79513 -1.15944,1.75603 -1.15944,2.88304 0,0.72665 0.17626,1.40384 0.52878,2.03221 0.35219,0.62805 0.82854,1.1139 1.42809,1.45561 0.59954,0.3417 1.25707,0.51239 1.97455,0.51239 0.71683,0 1.37501,-0.17069 1.97455,-0.51239 0.59955,-0.34171 1.0759,-0.82756 1.42809,-1.45561 0.35219,-0.62837 0.52878,-1.30556 0.52878,-2.03221 0,-1.12701 -0.3879,-2.08791 -1.16403,-2.88304 -0.77547,-0.79382 -1.69772,-1.19155 -2.76739,-1.19155 m 0.005,-1.26559 c 1.54898,0 2.83193,0.56023 3.85016,1.68166 0.92585,1.02217 1.38845,2.23272 1.38845,3.631 0,1.40417 -0.48913,2.63142 -1.46675,3.68144 -0.97859,1.05002 -2.23566,1.57552 -3.77186,1.57552 -1.54243,0 -2.8031,-0.5255 -3.78104,-1.57552 -0.97762,-1.05002 -1.46675,-2.27727 -1.46675,-3.68144 0,-1.39238 0.4626,-2.59965 1.38845,-3.62182 1.01758,-1.12701 2.30479,-1.69084 3.85934,-1.69084"
         style="fill:#204497;fill-opacity:1;fill-rule:nonzero;stroke:none;stroke-width:0.327618" />
      <path
         id="path16"
         d="m 133.61724,164.96053 h 1.29344 v 1.80157 c 0.51731,-0.68996 1.09031,-1.20563 1.71835,-1.54799 0.62837,-0.34171 1.31179,-0.5124 2.05122,-0.5124 0.75156,0 1.41826,0.191 2.00044,0.57301 0.58185,0.382 1.01135,0.89636 1.28885,1.54308 0.27716,0.64672 0.41542,1.65349 0.41542,3.02096 v 5.17375 h -1.29279 v -4.79502 c 0,-1.15813 -0.0485,-1.93098 -0.14448,-2.31855 -0.15004,-0.66572 -0.43737,-1.16567 -0.86229,-1.5018 -0.42459,-0.33549 -0.9799,-0.50355 -1.66331,-0.50355 -0.78203,0 -1.48346,0.25849 -2.10233,0.77645 -0.6192,0.51698 -1.02774,1.15748 -1.22463,1.92148 -0.12286,0.49896 -0.18445,1.41007 -0.18445,2.73463 v 3.68636 h -1.29344 z"
         style="fill:#204497;fill-opacity:1;fill-rule:nonzero;stroke:none;stroke-width:0.327618" />
      <path
         id="path17"
         d="m 150.21071,166.06002 -0.83149,0.85901 c -0.69193,-0.67096 -1.36814,-1.00677 -2.02862,-1.00677 -0.42,0 -0.78005,0.13859 -1.07917,0.41575 -0.29944,0.27684 -0.44949,0.6002 -0.44949,0.96942 0,0.32697 0.12318,0.63755 0.37053,0.93339 0.2467,0.30206 0.76532,0.65654 1.55586,1.06279 0.96254,0.49864 1.61647,0.97925 1.96243,1.44119 0.33942,0.46817 0.50912,0.99465 0.50912,1.57978 0,0.82559 -0.28994,1.52473 -0.86982,2.09708 -0.57989,0.573 -1.30491,0.85967 -2.1744,0.85967 -0.57989,0 -1.13389,-0.12646 -1.66103,-0.37873 -0.52746,-0.25259 -0.96352,-0.60052 -1.30949,-1.04411 l 0.81315,-0.92389 c 0.66113,0.74566 1.36191,1.11784 2.10233,1.11784 0.51829,0 0.96024,-0.16643 1.3239,-0.49897 0.36464,-0.33253 0.54647,-0.72371 0.54647,-1.17353 0,-0.36955 -0.12024,-0.69848 -0.36071,-0.98842 -0.24113,-0.28306 -0.78432,-0.64049 -1.6299,-1.07131 -0.9075,-0.46849 -1.52408,-0.93044 -1.8517,-1.38615 -0.32729,-0.45572 -0.49077,-0.9763 -0.49077,-1.56143 0,-0.76335 0.26078,-1.39827 0.78203,-1.90313 0.52124,-0.50519 1.18008,-0.75778 1.97586,-0.75778 0.92552,0 1.85694,0.45276 2.79491,1.3583"
         style="fill:#204497;fill-opacity:1;fill-rule:nonzero;stroke:none;stroke-width:0.327618" />
    </g>
  </g>
</svg>
